<svg width="27" height="39" viewBox="0 0 27 39" fill="none" xmlns="http://www.w3.org/2000/svg">
<path d="M13.5 1.76087H7.63046C6.07375 1.76087 4.5808 2.37928 3.48004 3.48004C2.37928 4.5808 1.76087 6.07375 1.76087 7.63046C1.76087 9.18717 2.37928 10.6801 3.48004 11.7809C4.5808 12.8816 6.07375 13.5 7.63046 13.5M13.5 1.76087V13.5M13.5 1.76087H19.3696C20.1404 1.76087 20.9037 1.9127 21.6158 2.20767C22.3279 2.50264 22.975 2.93499 23.52 3.48004C24.0651 4.02508 24.4974 4.67213 24.7924 5.38427C25.0874 6.0964 25.2392 6.85965 25.2392 7.63046C25.2392 8.40126 25.0874 9.16452 24.7924 9.87665C24.4974 10.5888 24.0651 11.2358 23.52 11.7809C22.975 12.3259 22.3279 12.7583 21.6158 13.0532C20.9037 13.3482 20.1404 13.5 19.3696 13.5M13.5 13.5H7.63046M13.5 13.5H19.3696M13.5 13.5V25.2392M7.63046 13.5C6.07375 13.5 4.5808 14.1184 3.48004 15.2192C2.37928 16.32 1.76087 17.8129 1.76087 19.3696C1.76087 20.9263 2.37928 22.4193 3.48004 23.52C4.5808 24.6208 6.07375 25.2392 7.63046 25.2392M19.3696 13.5C18.5988 13.5 17.8356 13.6519 17.1234 13.9468C16.4113 14.2418 15.7642 14.6742 15.2192 15.2192C14.6742 15.7642 14.2418 16.4113 13.9468 17.1234C13.6519 17.8356 13.5 18.5988 13.5 19.3696C13.5 20.1404 13.6519 20.9037 13.9468 21.6158C14.2418 22.3279 14.6742 22.975 15.2192 23.52C15.7642 24.0651 16.4113 24.4974 17.1234 24.7924C17.8356 25.0874 18.5988 25.2392 19.3696 25.2392C20.1404 25.2392 20.9037 25.0874 21.6158 24.7924C22.3279 24.4974 22.975 24.0651 23.52 23.52C24.0651 22.975 24.4974 22.3279 24.7924 21.6158C25.0874 20.9037 25.2392 20.1404 25.2392 19.3696C25.2392 18.5988 25.0874 17.8356 24.7924 17.1234C24.4974 16.4113 24.0651 15.7642 23.52 15.2192C22.975 14.6742 22.3279 14.2418 21.6158 13.9468C20.9037 13.6519 20.1404 13.5 19.3696 13.5ZM7.63046 25.2392C6.07375 25.2392 4.5808 25.8576 3.48004 26.9584C2.37928 28.0591 1.76087 29.5521 1.76087 31.1088C1.76087 32.6655 2.37928 34.1585 3.48004 35.2592C4.5808 36.36 6.07375 36.9784 7.63046 36.9784C9.18717 36.9784 10.6801 36.36 11.7809 35.2592C12.8816 34.1585 13.5 32.6655 13.5 31.1088V25.2392M7.63046 25.2392H13.5" stroke="#F3F3F3" stroke-width="3.5" stroke-linecap="round" stroke-linejoin="round"/>
</svg>
