<svg width="35" height="35" viewBox="0 0 35 35" fill="none" xmlns="http://www.w3.org/2000/svg">
<path d="M4.375 8.75002L8.75 2.91669H26.25L30.625 8.75002M4.375 8.75002V29.1667C4.375 29.9402 4.68229 30.6821 5.22927 31.2291C5.77625 31.7761 6.51812 32.0834 7.29167 32.0834H27.7083C28.4819 32.0834 29.2237 31.7761 29.7707 31.2291C30.3177 30.6821 30.625 29.9402 30.625 29.1667V8.75002M4.375 8.75002H30.625M23.3333 14.5834C23.3333 16.1304 22.7188 17.6142 21.6248 18.7081C20.5308 19.8021 19.0471 20.4167 17.5 20.4167C15.9529 20.4167 14.4692 19.8021 13.3752 18.7081C12.2812 17.6142 11.6667 16.1304 11.6667 14.5834" stroke="#1E1E1E" stroke-width="4" stroke-linecap="round" stroke-linejoin="round"/>
</svg>
